<?xml version="1.0" encoding="utf-8"?>
<!-- Generator: Adobe Illustrator 22.0.0, SVG Export Plug-In . SVG Version: 6.00 Build 0)  -->
<svg version="1.1" id="Слой_1" xmlns="http://www.w3.org/2000/svg" xmlns:xlink="http://www.w3.org/1999/xlink" x="0px" y="0px"
	 viewBox="0 0 1113 472" style="enable-background:new 0 0 1113 472;" xml:space="preserve">
<style type="text/css">
	.st0{fill:none;}
	.st1{opacity:0.85;fill:#C2C2C2;enable-background:new    ;}
	.st2{fill:#BFBFBF;}
	.st3{fill:#CBCBCB;}
	.st4{fill:#D6D6D6;}
	.st5{fill:#D4D4D4;}
	.st6{fill:#CCCCCC;}
	.st7{fill:#A8A8A8;}
	.st8{fill:#E1E1E1;}
	.st9{opacity:0.85;fill:#C8C8C8;enable-background:new    ;}
	.st10{fill:#B7B7B7;}
	.st11{fill:#CFCFCF;}
	.st12{fill:#BDBDBD;}
	.st13{opacity:0.85;fill:#CBCBCB;enable-background:new    ;}
	.st14{fill:#C9C9C9;}
	.st15{fill:#BCBCBC;}
	.st16{fill:#AAAAAA;}
	.st17{opacity:0.85;fill:#A8A8A8;enable-background:new    ;}
	.st18{fill:#FAFAFA;}
	.st19{fill:#E3E3E3;}
	.st20{fill:#979797;}
	.st21{fill:#F7F7F7;}
	.st22{fill:#9B9B9B;}
	.st23{opacity:0.85;fill:#B9B9B9;enable-background:new    ;}
	.st24{fill:#B1B1B1;}
	.st25{fill:#A2A2A2;}
	.st26{opacity:0.85;fill:#969696;enable-background:new    ;}
	.st27{fill:#A4A4A4;}
	.st28{fill:#FFFFFF;}
	.st29{fill:#ABABAB;}
	.st30{fill:#909090;}
	.st31{fill:#A0A0A0;}
	.st32{fill:#B8B8B8;}
	.st33{fill:#FEFEFE;}
	.st34{fill:#CECECE;}
	.st35{fill:#BABABA;}
	.st36{fill:#B0B0B0;}
	.st37{fill:#B4B4B4;}
	.st38{fill:#9E9E9E;}
	.st39{opacity:0.85;fill:#8F8F8F;enable-background:new    ;}
	.st40{fill:#8B8B8B;}
	.st41{fill:#ACACAC;}
	.st42{fill:#C2C2C2;}
	.st43{fill:#A6A6A6;}
	.st44{fill:#818181;}
	.st45{fill:#C4C4C4;}
	.st46{fill:#A9A9A9;}
	.st47{fill:#858585;}
	.st48{fill:#ADADAD;}
	.st49{fill:#797979;}
	.st50{fill:#7A7A7A;}
	.st51{opacity:0.85;fill:#797979;enable-background:new    ;}
	.st52{fill:#5C5C5C;}
	.st53{opacity:0.85;fill:#7F7F7F;enable-background:new    ;}
	.st54{fill:#6A6A6A;}
	.st55{fill:#D5D5D5;}
	.st56{opacity:0.85;fill:#A3A3A3;enable-background:new    ;}
	.st57{opacity:0.85;fill:#818181;enable-background:new    ;}
	.st58{fill:#999999;}
</style>
<title>extra-element</title>
<polygon class="st0" points="313.1,472 313.1,472 120,393.5 "/>
<polygon class="st0" points="1113,472 1113,461.7 1107.6,472 "/>
<polygon class="st0" points="489.7,253.9 489.5,253.7 584.3,354 584.4,353.9 "/>
<polygon class="st0" points="705.8,359 802,328 708.2,353 "/>
<polygon class="st0" points="74.3,444 0,426.7 0,427.1 73.9,444 50.2,472 50.7,472 74.3,444 "/>
<polygon class="st0" points="790,428 571.1,472 572.9,472 789.8,428.4 "/>
<path class="st0" d="M0,0v24.6L43,110l132.3,78l54.1-67l28.9,35l25.3,36l158.8-29l8.4,65l4,2.5l94.4-45.9l2.3-2.6l0.3,1.4l0.7-0.4
	l-0.7,0.7l34,169.6L766,275l-6,38l42.1,15l44.5,12l-56.5,88l176.8-56l-80.5,100H898l43.1-53.6l127.9,34l-86,19.5h54.3l75.7-10.3V0H0
	z M131.1,22.3L165.5,85L72,79.5L131.1,22.3z M175.3,171L43,93l186.5,11L175.3,171z M298.5,177.8l-14.5-17.5l94-26.1L298.5,177.8z
	 M464.8,205l-8.4-65l107.1,17L464.8,205z M662.2,283.8l-20.8-103.7l129.1,56.6L662.2,283.8z M774.9,305l6-38l36.1,53L774.9,305z
	 M826,413l56.5-88l120.3,32L826,413z"/>
<polygon class="st1" points="941.1,418.4 898,472 983,472 1069,452.4 "/>
<polygon class="st2" points="1107.6,472 1113,461.7 1037.3,472 "/>
<polygon class="st3" points="790,428 836.2,472 886.3,472 966.8,372 "/>
<polygon class="st4" points="826,413 1002.8,357 882.5,325 "/>
<polygon class="st5" points="846.5,340 802,328 790,428 "/>
<polygon class="st6" points="789.8,428.4 790,428.3 771.5,472 836.2,472 790,428 "/>
<polygon class="st7" points="789.8,428.4 572.9,472 771.5,472 790,428.3 "/>
<polygon class="st8" points="802,328 759.9,313 708.2,353 "/>
<polygon class="st9" points="790,428 802,328 705.8,359 "/>
<polygon class="st10" points="774.9,305 817,320 781,267 "/>
<polygon class="st11" points="705.8,359 571.1,472 790,428 "/>
<polygon class="st12" points="584.4,353.9 584.3,354 584.4,354 "/>
<polygon class="st12" points="708.2,353 766,275 585.8,353.3 585.9,354 "/>
<polygon class="st13" points="597.7,341.8 706,294.7 576.9,238.1 "/>
<polygon class="st14" points="759.9,313 766,275 708.2,353 "/>
<polygon class="st15" points="585.9,354 586.3,356 584.4,354 584.3,354 571.1,472 705.8,359 "/>
<polygon class="st16" points="585.9,354 585.9,354 705.8,359 708.2,353 "/>
<polygon class="st16" points="584.3,354 584.4,354 584.4,354 "/>
<polygon class="st17" points="551.4,182 549.1,184.6 551.7,183.3 "/>
<polygon class="st17" points="489.7,253.9 584.4,353.9 585.8,353.3 551.8,183.7 489.9,254 "/>
<polygon class="st12" points="584.4,354 585.9,354 585.8,353.3 584.4,353.9 "/>
<polygon class="st17" points="584.4,354 585.9,354 585.8,353.3 584.4,353.9 "/>
<polygon class="st15" points="586.3,356 585.9,354 584.4,354 "/>
<polygon class="st17" points="586.3,356 585.9,354 584.4,354 "/>
<polygon class="st16" points="584.4,354 584.4,354 585.9,354 585.9,354 "/>
<polygon class="st17" points="584.4,354 584.4,354 585.9,354 585.9,354 "/>
<polygon class="st18" points="488.2,252.9 557.8,356 584.3,354 489.5,253.7 "/>
<polygon class="st19" points="557.8,356 571.1,472 584.3,354 "/>
<polygon class="st20" points="487.6,252.5 535,356 557.8,356 488.2,252.9 "/>
<polygon class="st21" points="535,356 571.1,472 557.8,356 "/>
<polygon class="st19" points="486.4,251.7 486.1,251.5 471.2,262 453.2,303 "/>
<polygon class="st5" points="486.4,251.7 453.2,303 535,356 487.6,252.5 "/>
<polygon class="st22" points="441.1,369 571.1,472 535,356 "/>
<polygon class="st23" points="343.8,472 571.1,472 441.1,369 "/>
<polygon class="st24" points="486.1,251.5 486.4,251.7 487.6,252.5 488.2,252.9 489.5,253.7 489.7,253.9 489.9,254 551.8,183.7 
	552.4,183 551.7,183.3 549.1,184.6 454.8,230.5 486.9,251 "/>
<polygon class="st25" points="464.8,205 563.4,157 456.4,140 "/>
<polygon class="st26" points="441.1,369 535,356 453.2,303 "/>
<polygon class="st27" points="366.6,388 338.3,472 343.8,472 441.1,369 "/>
<polygon class="st28" points="486.1,251.5 486.9,251 454.8,230.5 450.8,228 471.2,262 "/>
<polygon class="st29" points="471.2,262 413.5,272 453.2,303 "/>
<polygon class="st30" points="471.2,262 450.8,228 413.5,272 "/>
<polygon class="st27" points="450.8,228 442.4,163 378.6,250 "/>
<polygon class="st31" points="413.5,272 450.8,228 378.6,250 "/>
<polygon class="st25" points="366.6,388 441.1,369 453.2,303 "/>
<polygon class="st32" points="413.5,272 366.6,388 453.2,303 "/>
<polygon class="st20" points="442.4,163 283.6,192 378.6,250 "/>
<polygon class="st33" points="378.6,250 283.6,192 289.6,213 "/>
<polygon class="st34" points="378.6,250 366.6,388 413.5,272 "/>
<polygon class="st35" points="298.5,177.8 378.1,134.2 284.1,160.3 "/>
<polygon class="st36" points="225.8,265 366.6,388 378.6,250 "/>
<polygon class="st37" points="289.6,213 225.8,265 378.6,250 "/>
<polygon class="st37" points="119.3,393 120,393.5 313.1,472 338.3,472 366.6,388 "/>
<polygon class="st38" points="224.8,472 313.1,472 120,393.5 "/>
<polygon class="st39" points="119,392.7 119.3,393 366.6,388 225.8,265 "/>
<polygon class="st40" points="119.3,393 119,392.7 118.8,393 108.3,472 224.8,472 120,393.5 "/>
<polygon class="st41" points="120,290 118.8,393 119,392.7 225.8,265 "/>
<polygon class="st42" points="289.6,213 283.6,192 225.8,265 "/>
<polygon class="st37" points="258.3,156 175.3,188 283.6,192 "/>
<polygon class="st43" points="283.6,192 175.3,188 225.8,265 "/>
<polygon class="st44" points="225.8,265 175.3,188 162.1,248 "/>
<polygon class="st45" points="229.4,121 175.3,188 258.3,156 "/>
<polygon class="st46" points="131.1,22.3 72,79.5 165.5,85 "/>
<polygon class="st47" points="162.1,248 120,290 225.8,265 "/>
<polygon class="st48" points="175.3,171 229.4,104 43,93 "/>
<polygon class="st49" points="74.3,444 74.3,444 74.3,444 97.2,472 108.3,472 118.8,393 "/>
<polygon class="st50" points="154.9,248 120,290 162.1,248 "/>
<polygon class="st28" points="162.1,248 175.3,188 154.9,248 "/>
<polygon class="st51" points="175.3,188 43,110 154.9,248 "/>
<polygon class="st52" points="43,110 0,126.4 0,156 154.9,248 "/>
<polygon class="st53" points="154.9,248 0,156 0,168.7 120,290 "/>
<polygon class="st54" points="65.8,410 118.8,393 120,290 "/>
<polygon class="st55" points="74.3,444 118.8,393 65.8,410 "/>
<polygon class="st20" points="0,168.7 0,304.3 120,290 "/>
<polygon class="st56" points="120,290 0,304.3 0,372.1 65.8,410 "/>
<polygon class="st41" points="0,372.1 0,420.4 65.8,410 "/>
<polygon class="st20" points="74.3,444 50.7,472 97.2,472 74.3,444 "/>
<polygon class="st57" points="65.8,410 0,420.4 0,426.7 74.3,444 "/>
<polygon class="st58" points="0,427.1 0,472 50.2,472 73.9,444 "/>
<polygon class="st24" points="0,24.6 0,105.6 43,110 "/>
<polygon class="st43" points="0,105.6 0,126.4 43,110 "/>
</svg>
