<svg id="Слой_1" data-name="Слой 1" xmlns="http://www.w3.org/2000/svg" viewBox="0 0 1112.98 471.97"><defs><style>.cls-1{fill:none;}.cls-2,.cls-43{fill:#c2c2c2;}.cls-10,.cls-14,.cls-18,.cls-2,.cls-24,.cls-27,.cls-40,.cls-52,.cls-54,.cls-57,.cls-58{opacity:0.85;isolation:isolate;}.cls-3{fill:#bfbfbf;}.cls-14,.cls-4{fill:#cbcbcb;}.cls-5{fill:#d6d6d6;}.cls-6{fill:#d4d4d4;}.cls-7{fill:#ccc;}.cls-18,.cls-8{fill:#a8a8a8;}.cls-9{fill:#e1e1e1;}.cls-10{fill:#c8c8c8;}.cls-11{fill:#b7b7b7;}.cls-12{fill:#cfcfcf;}.cls-13{fill:#bdbdbd;}.cls-15{fill:#c9c9c9;}.cls-16{fill:#bcbcbc;}.cls-17{fill:#aaa;}.cls-19{fill:#fafafa;}.cls-20{fill:#e3e3e3;}.cls-21{fill:#979797;}.cls-22{fill:#f7f7f7;}.cls-23{fill:#9b9b9b;}.cls-24{fill:#b9b9b9;}.cls-25{fill:#b1b1b1;}.cls-26{fill:#a2a2a2;}.cls-27{fill:#969696;}.cls-28{fill:#a4a4a4;}.cls-29{fill:#fff;}.cls-30{fill:#ababab;}.cls-31{fill:#909090;}.cls-32{fill:#a0a0a0;}.cls-33{fill:#b8b8b8;}.cls-34{fill:#fefefe;}.cls-35{fill:#cecece;}.cls-36{fill:#bababa;}.cls-37{fill:#b0b0b0;}.cls-38{fill:#b4b4b4;}.cls-39{fill:#9e9e9e;}.cls-40{fill:#8f8f8f;}.cls-41{fill:#8b8b8b;}.cls-42{fill:#acacac;}.cls-44{fill:#a6a6a6;}.cls-45,.cls-58{fill:#818181;}.cls-46{fill:#c4c4c4;}.cls-47{fill:#a9a9a9;}.cls-48{fill:#858585;}.cls-49{fill:#adadad;}.cls-50,.cls-52{fill:#797979;}.cls-51{fill:#7a7a7a;}.cls-53{fill:#5c5c5c;}.cls-54{fill:#7f7f7f;}.cls-55{fill:#6a6a6a;}.cls-56{fill:#d5d5d5;}.cls-57{fill:#a3a3a3;}.cls-59{fill:#999;}</style></defs><title>extra-element</title><polygon class="cls-1" points="313.15 471.97 313.15 471.97 119.98 393.46 313.15 471.97"/><polygon class="cls-1" points="1112.98 471.97 1112.98 461.68 1107.59 471.97 1112.98 471.97"/><polygon class="cls-1" points="489.73 253.89 489.46 253.71 584.3 353.97 584.38 353.94 489.73 253.89"/><polygon class="cls-1" points="705.8 358.97 802.03 327.97 708.21 352.97 705.8 358.97"/><polygon class="cls-1" points="74.26 443.97 0 426.69 0 427.06 73.89 443.99 50.23 471.97 50.66 471.97 74.3 444.02 74.26 443.97"/><polygon class="cls-1" points="790 427.97 571.07 471.97 572.91 471.97 789.83 428.38 790 427.97"/><path class="cls-1" d="M.36,308.11v24.56l43,85.41,132.33,78,54.13-67,28.87,35,25.26,36,158.79-29,8.42,65,4,2.53,94.38-45.93,2.29-2.6.27,1.35.73-.35-.65.74,34,169.62,180.18-78.36-6,38,42.1,15,44.51,12-56.54,88,176.84-56-80.52,100h11.66l43.13-53.56,127.91,34-86,19.53h54.3l75.68-10.3V308.11ZM131.5,330.45l34.39,62.69-93.52-5.51Zm44.17,148.63-132.33-78,186.46,11Zm123.22,6.85-14.47-17.54,94-26.06Zm166.25,27.15-8.42-65,107.06,17Zm197.44,78.87-20.8-103.74,129.08,56.64Zm112.71,21.13,6-38,36.08,53Zm51.07,108,56.54-88,120.3,32Z" transform="translate(-0.36 -308.11)"/><polygon class="cls-2" points="941.11 418.41 897.99 471.97 983 471.97 1069.02 452.44 941.11 418.41"/><polygon class="cls-3" points="1107.59 471.97 1112.98 461.68 1037.3 471.97 1107.59 471.97"/><polygon class="cls-4" points="790 427.97 836.22 471.97 886.32 471.97 966.84 371.97 790 427.97"/><polygon class="cls-5" points="826 412.97 1002.84 356.97 882.54 324.97 826 412.97"/><polygon class="cls-6" points="846.54 339.97 802.03 327.97 790 427.97 846.54 339.97"/><polygon class="cls-7" points="789.83 428.38 790 428.34 771.55 471.97 836.22 471.97 790 427.97 789.83 428.38"/><polygon class="cls-8" points="789.83 428.38 572.91 471.97 771.55 471.97 790 428.34 789.83 428.38"/><polygon class="cls-9" points="802.03 327.97 759.93 312.97 708.21 352.97 802.03 327.97"/><polygon class="cls-10" points="790 427.97 802.03 327.97 705.8 358.97 790 427.97"/><polygon class="cls-11" points="774.93 304.97 817.03 319.97 780.95 266.97 774.93 304.97"/><polygon class="cls-12" points="705.8 358.97 571.07 471.97 790 427.97 705.8 358.97"/><polygon class="cls-13" points="584.38 353.94 584.3 353.97 584.41 353.97 584.38 353.94"/><polygon class="cls-13" points="708.21 352.97 765.95 274.97 585.77 353.33 585.9 353.96 708.21 352.97"/><polygon class="cls-14" points="662.22 283.84 770.5 236.74 641.42 180.1 662.22 283.84"/><polygon class="cls-15" points="759.93 312.97 765.95 274.97 708.21 352.97 759.93 312.97"/><polygon class="cls-16" points="585.91 354.04 586.3 355.97 584.41 353.98 584.3 353.97 571.07 471.97 705.8 358.97 585.91 354.04"/><polygon class="cls-17" points="585.9 353.96 585.91 354.04 705.8 358.97 708.21 352.97 585.9 353.96"/><polygon class="cls-17" points="584.3 353.97 584.41 353.98 584.41 353.97 584.3 353.97"/><polygon class="cls-18" points="551.42 181.97 549.13 184.57 551.69 183.33 551.42 181.97"/><polygon class="cls-18" points="489.73 253.89 584.38 353.94 585.77 353.33 551.77 183.71 489.87 253.97 489.73 253.89"/><polygon class="cls-13" points="584.41 353.97 585.9 353.96 585.77 353.33 584.38 353.94 584.41 353.97"/><polygon class="cls-18" points="584.41 353.97 585.9 353.96 585.77 353.33 584.38 353.94 584.41 353.97"/><polygon class="cls-16" points="586.3 355.97 585.91 354.04 584.41 353.98 586.3 355.97"/><polygon class="cls-18" points="586.3 355.97 585.91 354.04 584.41 353.98 586.3 355.97"/><polygon class="cls-17" points="584.41 353.97 584.41 353.98 585.91 354.04 585.9 353.96 584.41 353.97"/><polygon class="cls-18" points="584.41 353.97 584.41 353.98 585.91 354.04 585.9 353.96 584.41 353.97"/><polygon class="cls-19" points="488.16 252.88 557.84 355.97 584.3 353.97 489.46 253.71 488.16 252.88"/><polygon class="cls-20" points="557.84 355.97 571.07 471.97 584.3 353.97 557.84 355.97"/><polygon class="cls-21" points="487.57 252.51 534.98 355.97 557.84 355.97 488.16 252.88 487.57 252.51"/><polygon class="cls-22" points="534.98 355.97 571.07 471.97 557.84 355.97 534.98 355.97"/><polygon class="cls-20" points="486.37 251.74 486.06 251.54 471.23 261.97 453.18 302.97 486.37 251.74"/><polygon class="cls-6" points="486.37 251.74 453.18 302.97 534.98 355.97 487.57 252.51 486.37 251.74"/><polygon class="cls-23" points="441.15 368.97 571.07 471.97 534.98 355.97 441.15 368.97"/><polygon class="cls-24" points="343.8 471.97 571.07 471.97 441.15 368.97 343.8 471.97"/><polygon class="cls-25" points="486.06 251.54 486.37 251.74 487.57 252.51 488.16 252.88 489.46 253.71 489.73 253.89 489.87 253.97 551.77 183.71 552.42 182.97 551.69 183.33 549.13 184.57 454.75 230.5 486.87 250.97 486.06 251.54"/><polygon class="cls-26" points="464.78 204.97 563.42 156.97 456.36 139.97 464.78 204.97"/><polygon class="cls-27" points="441.15 368.97 534.98 355.97 453.18 302.97 441.15 368.97"/><polygon class="cls-28" points="366.57 387.97 338.32 471.97 343.8 471.97 441.15 368.97 366.57 387.97"/><polygon class="cls-29" points="486.06 251.54 486.87 250.97 454.75 230.5 450.78 227.97 471.23 261.97 486.06 251.54"/><polygon class="cls-30" points="471.23 261.97 413.49 271.97 453.18 302.97 471.23 261.97"/><polygon class="cls-31" points="471.23 261.97 450.78 227.97 413.49 271.97 471.23 261.97"/><polygon class="cls-28" points="450.78 227.97 442.36 162.97 378.6 249.97 450.78 227.97"/><polygon class="cls-32" points="413.49 271.97 450.78 227.97 378.6 249.97 413.49 271.97"/><polygon class="cls-26" points="366.57 387.97 441.15 368.97 453.18 302.97 366.57 387.97"/><polygon class="cls-33" points="413.49 271.97 366.57 387.97 453.18 302.97 413.49 271.97"/><polygon class="cls-21" points="442.36 162.97 283.57 191.97 378.6 249.97 442.36 162.97"/><polygon class="cls-34" points="378.6 249.97 283.57 191.97 289.58 212.97 378.6 249.97"/><polygon class="cls-35" points="378.6 249.97 366.57 387.97 413.49 271.97 378.6 249.97"/><polygon class="cls-36" points="298.53 177.82 378.1 134.22 284.07 160.28 298.53 177.82"/><polygon class="cls-37" points="225.83 264.97 366.57 387.97 378.6 249.97 225.83 264.97"/><polygon class="cls-38" points="289.58 212.97 225.83 264.97 378.6 249.97 289.58 212.97"/><polygon class="cls-38" points="119.31 392.96 119.98 393.46 313.15 471.97 338.32 471.97 366.57 387.97 119.31 392.96"/><polygon class="cls-39" points="224.82 471.97 313.15 471.97 119.98 393.46 224.82 471.97"/><polygon class="cls-40" points="118.98 392.72 119.31 392.96 366.57 387.97 225.83 264.97 118.98 392.72"/><polygon class="cls-41" points="119.31 392.96 118.98 392.72 118.77 392.97 108.33 471.97 224.82 471.97 119.98 393.46 119.31 392.96"/><polygon class="cls-42" points="119.97 289.97 118.77 392.97 118.98 392.72 225.83 264.97 119.97 289.97"/><polygon class="cls-43" points="289.58 212.97 283.57 191.97 225.83 264.97 289.58 212.97"/><polygon class="cls-38" points="258.31 155.97 175.31 187.97 283.57 191.97 258.31 155.97"/><polygon class="cls-44" points="283.57 191.97 175.31 187.97 225.83 264.97 283.57 191.97"/><polygon class="cls-45" points="225.83 264.97 175.31 187.97 162.07 247.97 225.83 264.97"/><polygon class="cls-46" points="229.44 120.97 175.31 187.97 258.31 155.97 229.44 120.97"/><polygon class="cls-47" points="131.14 22.34 72.01 79.52 165.53 85.03 131.14 22.34"/><polygon class="cls-48" points="162.07 247.97 119.97 289.97 225.83 264.97 162.07 247.97"/><polygon class="cls-49" points="175.31 170.97 229.44 103.97 42.98 92.97 175.31 170.97"/><polygon class="cls-50" points="74.26 443.97 74.3 444.02 74.34 443.97 97.24 471.97 108.33 471.97 118.77 392.97 74.26 443.97"/><polygon class="cls-51" points="154.86 247.97 119.97 289.97 162.07 247.97 154.86 247.97"/><polygon class="cls-29" points="162.07 247.97 175.31 187.97 154.86 247.97 162.07 247.97"/><polygon class="cls-52" points="175.31 187.97 42.98 109.97 154.86 247.97 175.31 187.97"/><polygon class="cls-53" points="42.98 109.97 0 126.37 0 156.02 154.86 247.97 42.98 109.97"/><polygon class="cls-54" points="154.86 247.97 0 156.02 0 168.7 119.97 289.97 154.86 247.97"/><polygon class="cls-55" points="65.84 409.97 118.77 392.97 119.97 289.97 65.84 409.97"/><polygon class="cls-56" points="74.26 443.97 118.77 392.97 65.84 409.97 74.26 443.97"/><polygon class="cls-21" points="0 168.7 0 304.3 119.97 289.97 0 168.7"/><polygon class="cls-57" points="119.97 289.97 0 304.3 0 372.14 65.84 409.97 119.97 289.97"/><polygon class="cls-42" points="0 372.14 0 420.43 65.84 409.97 0 372.14"/><polygon class="cls-21" points="74.3 444.02 50.66 471.97 97.24 471.97 74.34 443.97 74.3 444.02"/><polygon class="cls-58" points="65.84 409.97 0 420.43 0 426.69 74.26 443.97 65.84 409.97"/><polygon class="cls-59" points="0 427.06 0 471.97 50.23 471.97 73.89 443.99 0 427.06"/><polygon class="cls-25" points="0 24.56 0 105.6 42.98 109.97 0 24.56"/><polygon class="cls-44" points="0 105.6 0 126.37 42.98 109.97 0 105.6"/></svg>