<svg xmlns="http://www.w3.org/2000/svg" viewBox="0 0 853.84 462.5"><defs><style>.cls-1{fill:none;}.cls-2,.cls-7{fill:#aaa;}.cls-13,.cls-2,.cls-28,.cls-29,.cls-38,.cls-4,.cls-46{opacity:0.8;}.cls-3{fill:#b0b0b0;}.cls-23,.cls-4{fill:#a8a8a8;}.cls-5{fill:#cfcfcf;}.cls-6{fill:#bcbcbc;}.cls-12,.cls-16,.cls-20,.cls-21,.cls-35,.cls-43,.cls-6,.cls-7{opacity:0.4;}.cls-8{fill:#e3e3e3;}.cls-9{fill:#f7f7f7;}.cls-10{fill:#9b9b9b;}.cls-11{fill:#b5b5b5;}.cls-12{fill:#b9b9b9;}.cls-13{fill:#969696;}.cls-14{fill:#a4a4a4;}.cls-15{fill:#7e7e7e;}.cls-16{fill:#c1c1c1;}.cls-17{fill:#a2a2a2;}.cls-18{fill:#414141;}.cls-19{fill:#b4b4b4;}.cls-20{fill:#9e9e9e;}.cls-21{fill:#8f8f8f;}.cls-22{fill:#bababa;}.cls-24{fill:#a5a5a5;}.cls-25{fill:#a1a1a1;}.cls-26,.cls-28{fill:#8b8b8b;}.cls-27{fill:#acacac;}.cls-29,.cls-42{fill:#818181;}.cls-30{fill:#858585;}.cls-31{fill:#797979;}.cls-32{fill:#7a7a7a;}.cls-33{fill:#d5d5d5;}.cls-34{fill:#fff;}.cls-35{fill:#7f7f7f;}.cls-36{fill:#6a6a6a;}.cls-37{fill:#8e8e8e;}.cls-38,.cls-40{fill:#979797;}.cls-39{fill:#a3a3a3;}.cls-41{fill:#686868;}.cls-43{fill:#999;}.cls-44{fill:#919191;}.cls-45{fill:#717171;}.cls-46{fill:#b8b8b8;}</style></defs><title>extra-element</title><g id="Слой_2" data-name="Слой 2"><polygon class="cls-1" points="128.81 451.5 137.65 451.5 128.5 397.5 154 451.5 161.5 451.5 110.5 343.5 128.81 451.5"/><polygon class="cls-2" points="756.67 447.5 853.84 447.5 739.5 351.5 756.67 447.5"/><polygon class="cls-3" points="734.66 355.27 647.5 410.5 633.5 451.5 754.5 462.5 734.66 355.27"/><polygon class="cls-4" points="496.5 331.5 599.11 451.5 620.83 451.5 678.5 287.5 496.5 331.5"/><polygon class="cls-5" points="608.5 218.5 496.5 331.5 678.5 287.5 608.5 218.5"/><polygon class="cls-6" points="647.05 402.98 780.86 316.9 683.34 290.16 647.05 402.98"/><polygon class="cls-7" points="478.5 458.5 599.5 451.5 496.5 331.5 478.5 458.5"/><polygon class="cls-3" points="431.5 422.5 452.28 451.5 479.02 451.5 496.5 331.5 431.5 422.5"/><polygon class="cls-8" points="558.5 268.5 508.5 232.5 496.5 331.5 558.5 268.5"/><polygon class="cls-8" points="386.64 171.68 307.5 149.5 333.5 232.5 386.64 171.68"/><polygon class="cls-9" points="508.5 215.5 466.5 215.5 496.5 331.5 508.5 215.5"/><polygon class="cls-10" points="496.5 331.5 466.5 215.5 388.5 228.5 496.5 331.5"/><polygon class="cls-11" points="431.5 422.5 496.5 331.5 300.5 340.5 431.5 422.5"/><polygon class="cls-12" points="300.5 340.5 496.5 331.5 388.5 228.5 300.5 340.5"/><polygon class="cls-13" points="466.5 215.5 398.5 162.5 388.5 228.5 466.5 215.5"/><polygon class="cls-14" points="388.5 228.5 326.5 247.5 300.5 340.5 388.5 228.5"/><polygon class="cls-15" points="302.5 390.5 431.5 422.5 300.5 340.5 302.5 390.5"/><polygon class="cls-16" points="282.5 444.5 456.5 458.5 431.5 422.5 302.5 390.5 282.5 444.5"/><polygon class="cls-17" points="398.5 162.5 326.5 247.5 388.5 228.5 398.5 162.5"/><polygon class="cls-18" points="281.5 417.5 282.5 444.5 302.5 390.5 281.5 417.5"/><polygon class="cls-19" points="300.5 340.5 326.5 247.5 120.5 252.5 300.5 340.5"/><polygon class="cls-20" points="120.5 252.5 251.5 370.5 300.5 340.5 120.5 252.5"/><polygon class="cls-21" points="326.5 247.5 209.5 124.5 120.5 252.5 326.5 247.5"/><polygon class="cls-22" points="300.5 340.5 251.5 370.5 302.5 390.5 300.5 340.5"/><polygon class="cls-23" points="251.5 370.5 281.5 417.5 302.5 390.5 251.5 370.5"/><polygon class="cls-24" points="281.5 417.5 218.36 451.5 224.75 451.5 282.5 457.5 281.5 417.5"/><polygon class="cls-25" points="251.5 370.5 216.93 451.5 218.36 451.5 281.5 417.5 251.5 370.5"/><polygon class="cls-26" points="110.5 343.5 251.5 370.5 120.5 252.5 110.5 343.5"/><polygon class="cls-27" points="120.5 252.5 209.5 124.5 121.5 149.5 120.5 252.5"/><polygon class="cls-6" points="161.5 451.5 216.93 451.5 251.5 370.5 161.5 451.5"/><polygon class="cls-28" points="110.5 343.5 161.5 451.5 251.5 370.5 110.5 343.5"/><polygon class="cls-29" points="209.5 124.5 167.5 47.5 156.5 107.5 209.5 124.5"/><polygon class="cls-30" points="121.5 149.5 209.5 124.5 156.5 107.5 121.5 149.5"/><polygon class="cls-31" points="83.5 303.5 110.5 343.5 120.5 252.5 83.5 303.5"/><polygon class="cls-32" points="156.5 107.5 150.5 107.5 121.5 149.5 156.5 107.5"/><polygon class="cls-33" points="130.16 458.5 163.5 458.5 111.5 346.5 130.16 458.5"/><polygon class="cls-34" points="167.5 47.5 150.5 107.5 156.5 107.5 167.5 47.5"/><polygon class="cls-35" points="150.5 107.5 0 0 0 1.76 121.5 149.5 150.5 107.5"/><polygon class="cls-36" points="121.5 149.5 76.5 269.5 120.5 252.5 121.5 149.5"/><polygon class="cls-37" points="0 429.94 0 442.47 61.93 451.5 128.81 451.5 110.5 343.5 0 429.94"/><polygon class="cls-33" points="76.5 269.5 83.5 303.5 120.5 252.5 76.5 269.5"/><polygon class="cls-38" points="0 1.76 0 166.95 121.5 149.5 0 1.76"/><polygon class="cls-37" points="3 455.5 85.5 458.5 3 446.47 3 455.5"/><polygon class="cls-39" points="121.5 149.5 0 166.95 0 216.63 76.5 269.5 121.5 149.5"/><polygon class="cls-27" points="76.5 269.5 0 216.63 0 269.13 8.5 282.5 76.5 269.5"/><polygon class="cls-40" points="83.5 303.5 0 421.43 0 429.94 110.5 343.5 83.5 303.5"/><polygon class="cls-41" points="0 269.13 0 276.92 8.5 282.5 0 269.13"/><polygon class="cls-42" points="8.5 282.5 83.5 303.5 76.5 269.5 8.5 282.5"/><polygon class="cls-43" points="8.5 282.5 0 343.55 0 421.43 83.5 303.5 8.5 282.5"/><polygon class="cls-44" points="0 282.5 0 343.55 8.5 282.5 0 282.5"/><polygon class="cls-45" points="0 276.92 0 282.5 8.5 282.5 0 276.92"/><polygon class="cls-46" points="326.06 232.54 291.35 126.69 247.66 138.57 326.06 232.54"/></g></svg>